:version 1.10
:name ASF
:units
  mass 1
  length 1
  angle deg
:documentation
  ASF file generated by Kaydara
:root
  axis xyz
  order  tx ty tz rx ry rz
  position 0 0 0
  orientation 0 0 0
:bonedata
  begin
    id 1
    name RightUpLegDummy
    direction -0.718183 -0.695806 0.00816078
    length 4.904
    axis 0 0 0 xyz
  end
  begin
    id 2
    name RightUpLeg
    direction -0.0736652 -0.994202 0.0783343
    length 17.4976
    axis -2.72909 -3.00389 -4.00133 xyz
    dof rx ry rz
  end
  begin
    id 3
    name RightLeg
    direction -0.0389037 -0.994596 -0.0962598
    length 16.5821
    axis 3.95836 -18.5909 -4.46993 xyz
    dof rx ry rz
  end
  begin
    id 4
    name RightFoot
    direction -0.311643 -0.412678 0.855906
    length 3.77069
    axis -1.99483 -18.8351 -3.27644 xyz
    dof rx ry rz
  end
  begin
    id 5
    name RightToes
    direction -0.317852 0.0389852 0.947339
    length 3.85082
    axis -2.00228 -18.1713 -3.25211 xyz
    dof rx ry rz
  end
  begin
    id 6
    name SpineDummy
    direction 8.3039e-015 1 4.44677e-016
    length 4.6813
    axis 0 0 0 xyz
  end
  begin
    id 7
    name Spine
    direction -0.000262373 0.999988 0.00493267
    length 10.1015
    axis -0.00246081 0.00062579 0.0150362 xyz
    dof rx ry rz
  end
  begin
    id 8
    name Spine1
    direction 0 0 0
    length 0
    axis -0.00349562 0.000650293 0.0196666 xyz
    dof rx ry rz
  end
  begin
    id 9
    name HEadDummy
    direction -0.000343232 0.999999 0.00123745
    length 3.43865
    axis -0.00349562 0.000650293 0.0196666 xyz
  end
  begin
    id 10
    name HEad
    direction -0.0461221 0.980933 0.188796
    length 5.12695
    axis -0.00351404 -7.04812 0.0199272 xyz
    dof rx ry rz
  end
  begin
    id 11
    name LeftShoulder1Dummy
    direction 0.998904 -0.0399089 -0.0244534
    length 3.5433
    axis -0.00349562 0.000650293 0.0196666 xyz
  end
  begin
    id 12
    name LeftShoulder1
    direction 0.99951 1.64443e-005 0.0312999
    length 4.05031
    axis -0.00349562 0.000650293 0.0196666 xyz
    dof rx ry rz
  end
  begin
    id 13
    name LeftArm
    direction 0.984791 0.0515299 0.165927
    length 12.9126
    axis -64.823 -10.7743 5.20463 xyz
    dof rx ry rz
  end
  begin
    id 14
    name LeftForeArm
    direction 0.984968 0.0534808 0.16425
    length 10.8596
    axis -30.0462 -7.70601 1.87451 xyz
    dof rx ry rz
  end
  begin
    id 15
    name LeftHand
    direction 0.975871 0.0289682 0.216418
    length 6.62295
    axis -20.1348 -6.98077 1.86072 xyz
    dof rx ry rz
  end
  begin
    id 16
    name RightShoulderDummy
    direction -0.998877 -0.0405946 -0.0244307
    length 3.5433
    axis -0.00349562 0.000650293 0.0196666 xyz
  end
  begin
    id 17
    name RightShoulder
    direction -0.998933 -0.0249743 -0.0388558
    length 4.05031
    axis -0.0205316 -4.02113 1.41395 xyz
    dof rx ry rz
  end
  begin
    id 18
    name RightArm
    direction -0.997559 0.068664 0.0127103
    length 12.9638
    axis -67.3882 1.84188 -6.15987 xyz
    dof rx ry rz
  end
  begin
    id 19
    name RightForeArm
    direction -0.991508 0.0912848 0.0926241
    length 10.8312
    axis -22.1975 3.41087 -4.28711 xyz
    dof rx ry rz
  end
  begin
    id 20
    name RightHand
    direction -0.989262 0.0600788 0.133232
    length 6.57864
    axis -12.2911 2.17515 -4.39675 xyz
    dof rx ry rz
  end
  begin
    id 21
    name LeftUpLegDummy
    direction 0.718183 -0.695806 0.00816078
    length 4.904
    axis 0 0 0 xyz
  end
  begin
    id 22
    name LeftUpLeg
    direction 0.0831398 -0.99469 0.0606531
    length 17.4976
    axis -1.71016 2.29552 4.63832 xyz
    dof rx ry rz
  end
  begin
    id 23
    name LeftLeg
    direction 0.0498442 -0.991778 -0.117862
    length 16.5821
    axis 5.13757 15.5727 5.13348 xyz
    dof rx ry rz
  end
  begin
    id 24
    name LeftFoot
    direction 0.269026 -0.433896 0.85986
    length 3.77069
    axis -0.576502 15.6961 4.10267 xyz
    dof rx ry rz
  end
  begin
    id 25
    name LeftToes
    direction 0.277311 0.0251143 0.960452
    length 3.85048
    axis -0.576502 15.6961 4.10267 xyz
    dof rx ry rz
  end
:hierarchy
  begin
    root RightUpLegDummy SpineDummy LeftUpLegDummy
    RightUpLegDummy RightUpLeg
    RightUpLeg RightLeg
    RightLeg RightFoot
    RightFoot RightToes
    SpineDummy Spine
    Spine Spine1
    Spine1 HEadDummy LeftShoulder1Dummy RightShoulderDummy
    HEadDummy HEad
    LeftShoulder1Dummy LeftShoulder1
    LeftShoulder1 LeftArm
    LeftArm LeftForeArm
    LeftForeArm LeftHand
    RightShoulderDummy RightShoulder
    RightShoulder RightArm
    RightArm RightForeArm
    RightForeArm RightHand
    LeftUpLegDummy LeftUpLeg
    LeftUpLeg LeftLeg
    LeftLeg LeftFoot
    LeftFoot LeftToes
  end

:SAMPLES-PER-SECOND 30
:FULLY-SPECIFIED
:DEGREES
1
root  3.02579 39.9468 -107.775 3.09494 -1.86024 1.16036
RightUpLeg  -3.26867 -0.851452 2.96898
RightLeg  3.27741 -11.363 1.54339
RightFoot  -3.80177 0.195384 -2.30839
RightToes  5.82077e-011 -3.18055e-015 -2.98177e-016
Spine  -4.82238 -0.652154 1.88589
Spine1  5.22354 -0.600593 -0.419773
HEad  -7.83433 4.22465 -1.13914
LeftShoulder1  -3.88251e-019 9.70628e-020 -3.87848e-018
LeftArm  -30.2764 57.1473 -77.1583
LeftForeArm  -1.90564 -13.0688 -3.34834
LeftHand  -0.42102 -0.126798 9.64591
RightShoulder  8.42512 10.9956 38.8678
RightArm  10.8337 -44.2007 15.1048
RightForeArm  16.2765 15.3194 -5.07442
RightHand  -1.264 5.37422 -13.5498
LeftUpLeg  -3.95156 -5.66905 -5.63451
LeftLeg  2.72116 8.45331 3.33237
LeftFoot  -2.27078 -0.170909 1.76853
LeftToes  7.79675e-011 9.80247e-012 -3.28897e-011
2
root  3.0219 39.9484 -107.774 3.12651 -2.12803 1.17002
RightUpLeg  -3.32301 -0.872784 2.94674
RightLeg  3.27912 -11.0866 1.59457
RightFoot  -3.80144 0.199747 -2.35717
RightToes  5.82077e-011 -3.18055e-015 -2.98177e-016
Spine  -4.91658 -0.524214 1.92384
Spine1  5.24511 -0.449623 -0.5272
HEad  -7.92099 4.23528 -1.01282
LeftShoulder1  -3.88251e-019 9.70628e-020 -3.87848e-018
LeftArm  -30.0538 57.1159 -76.7834
LeftForeArm  -1.936 -12.9858 -3.32807
LeftHand  -0.397258 0.194043 9.65841
RightShoulder  8.42725 10.9939 38.9066
RightArm  11.2119 -44.0897 14.8689
RightForeArm  16.122 15.4398 -5.09107
RightHand  -1.25828 5.50413 -13.3336
LeftUpLeg  -3.94261 -5.59169 -5.61191
LeftLeg  2.69716 8.64817 3.2597
LeftFoot  -2.26647 -0.171584 1.77563
LeftToes  7.79675e-011 9.80247e-012 -3.28897e-011
3
root  2.97033 39.9579 -107.759 2.6608 -2.39795 0.87171
RightUpLeg  -2.45581 -0.469853 3.41784
RightLeg  2.56964 -11.225 1.77081
RightFoot  -3.55762 0.215359 -2.48462
RightToes  5.82077e-011 -3.18055e-015 -2.98177e-016
Spine  -4.35569 -0.373094 1.84905
Spine1  5.03213 -0.340145 -0.325242
HEad  -8.04445 4.22126 -0.867005
LeftShoulder1  -3.88251e-019 9.70628e-020 -3.87848e-018
LeftArm  -29.5165 57.1141 -75.927
LeftForeArm  -2.30127 -12.9573 -3.29007
LeftHand  -0.313855 0.914933 8.97205
RightShoulder  8.42464 10.9914 38.914
RightArm  11.9907 -43.9232 14.3753
RightForeArm  15.7327 15.6727 -5.12719
RightHand  -1.26429 5.45441 -13.4567
LeftUpLeg  -3.42592 -5.05066 -5.14831
LeftLeg  2.81271 8.36505 3.13978
LeftFoot  -2.40249 -0.169296 1.75157
LeftToes  7.79675e-011 9.80247e-012 -3.28897e-011
4
root  2.80021 39.9873 -107.722 0.926547 -2.12789 -0.208053
RightUpLeg  0.865715 0.894979 5.0972
RightLeg  -0.0792346 -12.8433 2.40522
RightFoot  -2.67994 0.263263 -2.84042
RightToes  5.82077e-011 -3.18055e-015 -2.98177e-016
Spine  -2.09677 -0.420125 1.34958
Spine1  4.35752 -0.634613 0.875434
HEad  -8.10867 4.1325 -0.852596
LeftShoulder1  -3.88251e-019 9.70628e-020 -3.87848e-018
LeftArm  -28.5063 57.1723 -74.9722
LeftForeArm  -2.03179 -12.9019 -3.46311
LeftHand  -0.326579 0.998438 9.51024
RightShoulder  8.40392 10.9832 38.8289
RightArm  12.7627 -43.8091 13.8109
RightForeArm  15.1433 15.915 -5.21774
RightHand  -1.26731 5.08697 -13.9441
LeftUpLeg  -1.78475 -3.44149 -3.59744
LeftLeg  3.42817 6.42917 3.02656
LeftFoot  -2.90031 -0.144846 1.49451
LeftToes  7.79675e-011 9.80247e-012 -3.28897e-011
5
root  2.82285 39.9921 -107.709 0.621576 -2.54056 0.0830385
RightUpLeg  0.964175 0.637284 4.72377
RightLeg  0.329536 -12.1506 2.19784
RightFoot  -2.87155 0.243347 -2.65759
RightToes  5.82077e-011 -3.18055e-015 -2.98177e-016
Spine  -1.76247 -0.223964 1.06652
Spine1  4.1626 -0.426268 0.997755
HEad  -8.1412 4.08939 -0.890932
LeftShoulder1  -3.88251e-019 9.70628e-020 -3.87848e-018
LeftArm  -27.7543 57.1994 -74.0594
LeftForeArm  -1.45254 -12.8481 -3.50803
LeftHand  -0.357192 0.301693 8.92264
RightShoulder  8.37245 10.9695 38.7088
RightArm  13.0786 -43.7149 13.4214
RightForeArm  14.5925 16.0278 -5.3013
RightHand  -1.24401 4.66041 -14.2492
LeftUpLeg  -1.12078 -3.63559 -3.96433
LeftLeg  2.91464 7.04963 2.81863
LeftFoot  -2.70786 -0.145681 1.50329
LeftToes  7.79675e-011 9.80247e-012 -3.28897e-011
6
root  2.79716 40.0062 -107.58 -0.899019 -5.00077 0.882449
RightUpLeg  2.06296 0.244526 3.93722
RightLeg  1.3096 -9.30067 1.3828
RightFoot  -3.45781 0.199995 -2.29303
RightToes  5.82077e-011 -3.18055e-015 -2.98177e-016
Spine  -1.0189 0.936698 0.298586
Spine1  4.81441 0.814184 1.15547
HEad  -8.15478 4.1465 -0.89633
LeftShoulder1  -3.88251e-019 9.70628e-020 -3.87848e-018
LeftArm  -27.3262 57.207 -73.3154
LeftForeArm  -0.7887 -12.7602 -3.44532
LeftHand  -0.389884 -0.641629 8.1405
RightShoulder  8.35731 10.9628 38.651
RightArm  12.964 -43.5279 13.1347
RightForeArm  14.3018 15.9614 -5.27593
RightHand  -1.2066 4.42691 -14.1455
LeftUpLeg  2.03916 -3.48744 -4.66685
LeftLeg  1.02168 9.41334 1.65161
LeftFoot  -2.28855 -0.162241 1.67739
LeftToes  7.79675e-011 9.80247e-012 -3.28897e-011
7
root  2.79542 40.0057 -107.609 -0.969359 -4.81641 0.72469
RightUpLeg  2.1921 0.354078 4.11705
RightLeg  1.18632 -9.60623 1.45335
RightFoot  -3.43177 0.201481 -2.30128
RightToes  5.82077e-011 -3.18055e-015 -2.98177e-016
Spine  -0.736764 0.859464 0.145379
Spine1  4.52649 0.667767 1.41892
HEad  -8.19183 4.23365 -0.886312
LeftShoulder1  -3.88251e-019 9.70628e-020 -3.87848e-018
LeftArm  -27.0055 57.1769 -72.716
LeftForeArm  -0.41564 -12.6226 -3.39456
LeftHand  -0.418576 -1.08671 8.12299
RightShoulder  8.35345 10.9612 38.6356
RightArm  12.5135 -43.2295 12.9705
RightForeArm  14.4602 15.7273 -5.13389
RightHand  -1.18241 4.37765 -13.9344
LeftUpLeg  1.91015 -3.22126 -4.40382
LeftLeg  1.32345 8.94527 1.64424
LeftFoot  -2.396 -0.163826 1.69406
LeftToes  7.79675e-011 9.80247e-012 -3.28897e-011
8
root  2.80467 40.0055 -107.629 -1.13297 -4.83129 0.717691
RightUpLeg  2.21156 0.319655 4.09525
RightLeg  1.44206 -9.56047 1.35883
RightFoot  -3.53647 0.197658 -2.26371
RightToes  5.82077e-011 -3.18055e-015 -2.98177e-016
Spine  -0.538472 0.872749 -0.0363379
Spine1  4.52764 0.634182 1.63146
HEad  -8.36821 4.23503 -0.938428
LeftShoulder1  -3.88251e-019 9.70628e-020 -3.87848e-018
LeftArm  -26.6408 57.0552 -72.2624
LeftForeArm  -0.373982 -12.4531 -3.43644
LeftHand  -0.439294 -0.82943 8.89219
RightShoulder  8.34505 10.9575 38.602
RightArm  11.9364 -42.9227 12.9804
RightForeArm  14.8759 15.4662 -5.01371
RightHand  -1.17392 4.3645 -13.8538
LeftUpLeg  2.05921 -3.14576 -4.38442
LeftLeg  1.3337 8.86734 1.60953
LeftFoot  -2.41516 -0.169444 1.75312
LeftToes  7.79675e-011 9.80247e-012 -3.28897e-011
9
root  2.81414 40.0049 -107.645 -1.21633 -4.81016 0.734114
RightUpLeg  2.18468 0.273782 4.04748
RightLeg  1.62613 -9.53024 1.29957
RightFoot  -3.5953 0.19665 -2.2539
RightToes  5.82077e-011 -3.18055e-015 -2.98177e-016
Spine  -0.578881 0.87828 -0.191705
Spine1  4.79725 0.59793 1.81356
HEad  -8.75185 4.14576 -1.03166
LeftShoulder1  -3.88251e-019 9.70628e-020 -3.87848e-018
LeftArm  -26.344 56.861 -71.9857
LeftForeArm  -0.425406 -12.3104 -3.50348
LeftHand  -0.42953 -0.277072 9.55981
RightShoulder  8.33748 10.9558 38.5731
RightArm  11.6741 -42.7132 13.0233
RightForeArm  15.0385 15.401 -5.04115
RightHand  -1.1631 4.33036 -13.7745
LeftUpLeg  2.12829 -3.16738 -4.42665
LeftLeg  1.3186 8.85203 1.63053
LeftFoot  -2.40015 -0.167662 1.73439
LeftToes  7.79675e-011 9.80247e-012 -3.28897e-011
10
root  2.81454 40.0044 -107.653 -1.19886 -4.75527 0.729253
RightUpLeg  2.19512 0.286991 4.05656
RightLeg  1.55524 -9.59167 1.32772
RightFoot  -3.57078 0.198439 -2.27206
RightToes  5.82077e-011 -3.18055e-015 -2.98177e-016
Spine  -0.775031 0.886258 -0.306842
Spine1  5.13631 0.571413 1.96303
HEad  -9.18593 4.04501 -1.07913
LeftShoulder1  -3.88251e-019 9.70628e-020 -3.87848e-018
LeftArm  -26.2484 56.7126 -71.8462
LeftForeArm  -0.421281 -12.2587 -3.49503
LeftHand  -0.39983 0.0239682 9.42494
RightShoulder  8.33713 10.956 38.5836
RightArm  12.0283 -42.6472 12.8916
RightForeArm  14.6961 15.6138 -5.19505
RightHand  -1.14994 4.31777 -13.6382
LeftUpLeg  2.06772 -3.14979 -4.40825
LeftLeg  1.36756 8.77582 1.63597
LeftFoot  -2.39475 -0.162257 1.67756
LeftToes  7.79675e-011 9.80247e-012 -3.28897e-011
11
root  2.81155 40.0043 -107.653 -1.09602 -4.71137 0.717603
RightUpLeg  2.16601 0.334671 4.09193
RightLeg  1.39809 -9.67361 1.37466
RightFoot  -3.5271 0.199025 -2.27755
RightToes  5.82077e-011 -3.18055e-015 -2.98177e-016
Spine  -0.937743 0.903841 -0.372949
Spine1  5.2861 0.56549 2.07941
HEad  -9.4127 3.9694 -1.08243
LeftShoulder1  -3.88251e-019 9.70628e-020 -3.87848e-018
LeftArm  -26.2608 56.707 -71.7697
LeftForeArm  -0.442331 -12.2989 -3.44967
LeftHand  -0.38225 -0.025689 8.92881
RightShoulder  8.33879 10.9548 38.591
RightArm  12.7404 -42.7119 12.6097
RightForeArm  14.1285 15.932 -5.37313
RightHand  -1.15389 4.34534 -13.6467
LeftUpLeg  1.92822 -3.10106 -4.35461
LeftLeg  1.41838 8.68071 1.59636
LeftFoot  -2.4052 -0.16255 1.68064
LeftToes  7.79675e-011 9.80247e-012 -3.28897e-011
12
root  2.8133 40.0049 -107.65 -0.964062 -4.71235 0.708805
RightUpLeg  2.08315 0.364565 4.10524
RightLeg  1.29201 -9.68634 1.41879
RightFoot  -3.49442 0.198754 -2.27434
RightToes  5.82077e-011 -3.18055e-015 -2.98177e-016
Spine  -0.973643 0.915375 -0.363694
Spine1  5.2271 0.565031 2.13816
HEad  -9.40598 3.91357 -1.10132
LeftShoulder1  -3.88251e-019 9.70628e-020 -3.87848e-018
LeftArm  -26.2367 56.8278 -71.7634
LeftForeArm  -0.567226 -12.3787 -3.47205
LeftHand  -0.387025 -0.0767929 8.95132
RightShoulder  8.33952 10.9547 38.5645
RightArm  13.2347 -42.8374 12.369
RightForeArm  13.7746 16.1345 -5.5009
RightHand  -1.17555 4.4121 -13.8078
LeftUpLeg  1.8036 -3.07877 -4.32364
LeftLeg  1.39646 8.6431 1.54846
LeftFoot  -2.40986 -0.165972 1.71662
LeftToes  7.79675e-011 9.80247e-012 -3.28897e-011
13
root  2.81691 40.0077 -107.644 -0.892481 -4.74375 0.699129
RightUpLeg  2.06906 0.369694 4.10107
RightLeg  1.18771 -9.64601 1.48627
RightFoot  -3.45316 0.199855 -2.28575
RightToes  5.82077e-011 -3.18055e-015 -2.98177e-016
Spine  -0.889899 0.90989 -0.277868
Spine1  5.14007 0.562 2.09996
HEad  -9.40587 3.88559 -1.11
LeftShoulder1  -3.88251e-019 9.70628e-020 -3.87848e-018
LeftArm  -26.2646 56.9661 -71.8992
LeftForeArm  -0.681739 -12.4421 -3.53159
LeftHand  -0.402568 0.00868026 9.46111
RightShoulder  8.34068 10.9536 38.5509
RightArm  13.2901 -42.9444 12.2495
RightForeArm  13.6975 16.1831 -5.57909
RightHand  -1.18551 4.48892 -13.8184
LeftUpLeg  1.77103 -3.08264 -4.31913
LeftLeg  1.33208 8.66428 1.53036
LeftFoot  -2.39614 -0.163172 1.68718
LeftToes  7.79675e-011 9.80247e-012 -3.28897e-011
14
root  2.81556 40.0113 -107.64 -0.890337 -4.75319 0.695151
RightUpLeg  2.12618 0.380657 4.1087
RightLeg  1.08458 -9.64763 1.53569
RightFoot  -3.41549 0.200362 -2.292
RightToes  5.82077e-011 -3.18055e-015 -2.98177e-016
Spine  -0.758265 0.896833 -0.156351
Spine1  5.1665 0.567368 1.97265
HEad  -9.5916 3.87328 -1.042
LeftShoulder1  -3.88251e-019 9.70628e-020 -3.87848e-018
LeftArm  -26.5445 56.9885 -72.1888
LeftForeArm  -0.585523 -12.4027 -3.49795
LeftHand  -0.422066 -0.153117 9.62194
RightShoulder  8.3425 10.9507 38.5764
RightArm  13.1559 -43.0126 12.2062
RightForeArm  13.5967 16.1758 -5.63686
RightHand  -1.15895 4.37868 -13.66
LeftUpLeg  1.78919 -3.10812 -4.33358
LeftLeg  1.30301 8.70623 1.56135
LeftFoot  -2.3674 -0.155465 1.60615
LeftToes  7.79675e-011 9.80247e-012 -3.28897e-011
15
root  2.80885 40.0101 -107.64 -0.875042 -4.70245 0.710747
RightUpLeg  2.09965 0.393107 4.10875
RightLeg  1.09812 -9.72231 1.51105
RightFoot  -3.42764 0.198609 -2.27642
RightToes  5.82077e-011 -3.18055e-015 -2.98177e-016
Spine  -0.667061 0.874643 -0.0732701
Spine1  5.30552 0.562572 1.86924
HEad  -9.90566 3.83977 -0.948193
LeftShoulder1  -3.88251e-019 9.70628e-020 -3.87848e-018
LeftArm  -27.0563 56.8341 -72.5658
LeftForeArm  -0.251607 -12.163 -3.36502
LeftHand  -0.447511 -0.77783 9.13153
RightShoulder  8.34058 10.9483 38.5876
RightArm  13.0251 -43.0602 12.2382
RightForeArm  13.313 16.1589 -5.6606
RightHand  -1.10417 3.8465 -13.7513
LeftUpLeg  1.75075 -3.16936 -4.37047
LeftLeg  1.32399 8.72569 1.62604
LeftFoot  -2.34874 -0.152182 1.57164
LeftToes  7.79675e-011 9.80247e-012 -3.28897e-011
